# xmcd
#
# Track frame offsets:
#	150
#	26850
#	48000
#	66713
#	77944
#	83569
#	100238
#	114732
#	135844
#	154617
#	188761
#	198663
#	204288
#	212578
#
# Disc length: 3154 seconds
#
# Revision: 1
# Processed by: cddbd v1.5.2PL0 Copyright (c) Steve Scherf et al.
# Submitted via: audiograbber 1.83.01
#
DISCID=bc0c500e
DTITLE=Vaughan, John - Postcards From The Road
DYEAR=2002
DGENRE=Blues
TTITLE0=Tokyo Hotel Blues
TTITLE1=The Tomb Of Carlos Gardel
TTITLE2=State Secrets
TTITLE3=When The Shadows Fly Away
TTITLE4=Sikino Island
TTITLE5=Breezy Conditions
TTITLE6=The Ghosts Of Marrakech
TTITLE7=The Sweetheart Of Iwo Jima
TTITLE8=Deep In A Dream
TTITLE9=Anthem For Kreuzberg
TTITLE10=4:15 In The Morning
TTITLE11=Tribute To T.M. Fabian
TTITLE12=Poolhall In Rangoon
TTITLE13=Nitecap With Eddie Sharp And Rama
EXTD=
EXTT0=
EXTT1=
EXTT2=
EXTT3=
EXTT4=
EXTT5=
EXTT6=
EXTT7=
EXTT8=
EXTT9=
EXTT10=
EXTT11=
EXTT12=
EXTT13=
PLAYORDER=
